<?xml version="1.0" encoding="utf-8"?>
<!-- Generator: Adobe Illustrator 25.4.1, SVG Export Plug-In . SVG Version: 6.00 Build 0)  -->
<svg version="1.1" id="Layer_1" xmlns="http://www.w3.org/2000/svg" xmlns:xlink="http://www.w3.org/1999/xlink" x="0px" y="0px"
	 viewBox="0 0 443.9 127.1" style="enable-background:new 0 0 443.9 127.1;" xml:space="preserve">
<style type="text/css">
	.st0{enable-background:new    ;}
	.st1{fill:#FFFFFF;}
</style>
<g class="st0">
	<path class="st1" d="M47.6,9.6C25.8,9.6,9.8,26.1,9.8,48.9c0,23,15.7,39.4,37.5,39.4c15.6,0,26.5-6.6,33.1-19.5l6.9,2.8
		c-7.6,14.9-21.6,23.9-40.1,23.9C21.3,95.5,2.1,76,2.1,49c0-26.8,19.5-46.4,45.5-46.4c18,0,31,8.9,39,22.6l-7,2.8
		C72.7,16.1,62.2,9.6,47.6,9.6z"/>
	<path class="st1" d="M165.2,69.2h-50l-10.9,25.1h-8.1l39.6-90.6h8.8l39.8,90.6h-8.2L165.2,69.2z M162.2,62.3l-21-48.6l-1-3l-1,3
		l-21,48.6H162.2z"/>
	<path class="st1" d="M277.4,48.9c0,26.4-20.1,45.4-47.8,45.4h-30.1V3.7h30.4C257.4,3.7,277.4,22.7,277.4,48.9z M269.7,48.9
		c0.1-22.6-16.4-38.2-39.8-38.2h-23v76.5h22.8C253.1,87.2,269.7,71.6,269.7,48.9z"/>
	<path class="st1" d="M355.7,69.2h-50l-10.9,25.1h-8.1l39.6-90.6h8.8l39.8,90.6h-8.2L355.7,69.2z M352.7,62.3l-21-48.6l-1-3l-1,3
		l-21,48.6H352.7z"/>
	<path class="st1" d="M382.3,74.4l7-2.1c0,0,4.1,16.5,23,16.5c13.4,0,22-6.8,22-17.5c0-9.1-5.4-14.6-16.9-17.7l-12.6-3.2
		c-14-3.8-20.8-11.2-20.8-24.2c0-14.2,10.9-23.5,27.5-23.5c22.8,0,27.6,17.4,27.6,17.4l-6.9,2.4c0,0-3.5-13.2-20.6-13.2
		c-12.4,0-20.2,6.5-20.2,16.5c0,9.4,5.4,15.1,17,18.2l12.6,3.4c14.1,3.8,21,11.2,21,23.7c0,14.9-11.8,24.5-29.8,24.5
		C388.1,95.4,382.3,74.4,382.3,74.4z"/>
</g>
<g class="st0">
	<path class="st1" d="M1.7,117.3L1.7,117.3c0-3.6,2.9-6.3,6.7-6.3c2.8,0,4.7,1.3,5.7,3.1l-3.5,1.9c-0.5-0.9-1.1-1.5-2.3-1.5
		c-1.4,0-2.4,1.2-2.4,2.6l0,0c0,1.6,1,2.6,2.4,2.6c1.2,0,1.9-0.6,2.4-1.5l3.5,1.9c-1.1,1.8-2.8,3.2-6,3.2
		C4.7,123.5,1.7,121,1.7,117.3z"/>
	<path class="st1" d="M14.5,120.6L14.5,120.6c0-1.9,1.5-2.9,3.8-2.9c0.8,0,1.9,0.2,2.3,0.3v-0.2c0-0.9-0.6-1.4-1.8-1.4
		c-1,0-1.9,0.2-2.7,0.5l-0.7-2.6c1.1-0.4,2.4-0.7,4.1-0.7c2,0,3.3,0.4,4.2,1.2c0.7,0.7,1,1.6,1,3v5.3h-4.1v-0.9
		c-0.7,0.7-1.6,1.2-2.8,1.2C15.8,123.4,14.5,122.4,14.5,120.6z M20.6,119.8v-0.4c-0.2-0.1-0.6-0.2-0.9-0.2c-0.8,0-1.3,0.5-1.3,1l0,0
		c0,0.5,0.4,0.9,0.9,0.9C20.1,121.2,20.6,120.7,20.6,119.8z"/>
	<path class="st1" d="M25.8,113.9h4.1v1.9c0.6-1.3,1.5-2.1,3.1-2v4.1h-0.4c-1.7,0-2.7,0.9-2.7,3v2.4h-4.1
		C25.8,123.3,25.8,113.9,25.8,113.9z"/>
	<path class="st1" d="M33.6,110.7h4.2v2.5h-4.2V110.7z M33.7,113.9h4.1v9.3h-4.1V113.9z"/>
	<path class="st1" d="M43.2,122.2v1.1h-4.1v-12.5h4.1v4.3c0.7-0.7,1.4-1.4,2.9-1.4c2.4,0,4.2,2,4.2,4.8l0,0c0,3-1.9,4.9-4.2,4.9
		C44.6,123.4,43.8,122.8,43.2,122.2z M46.4,118.6L46.4,118.6c0-1-0.7-1.7-1.6-1.7c-0.9,0-1.6,0.7-1.6,1.7l0,0c0,0.9,0.7,1.7,1.6,1.7
		C45.7,120.2,46.4,119.5,46.4,118.6z"/>
	<path class="st1" d="M55.4,122.2v1.1h-4.1v-12.5h4.1v4.3c0.7-0.7,1.4-1.4,2.9-1.4c2.4,0,4.2,2,4.2,4.8l0,0c0,3-1.9,4.9-4.2,4.9
		C56.8,123.4,56,122.8,55.4,122.2z M58.6,118.6L58.6,118.6c0-1-0.7-1.7-1.6-1.7c-0.9,0-1.6,0.7-1.6,1.7l0,0c0,0.9,0.7,1.7,1.6,1.7
		C57.8,120.2,58.6,119.5,58.6,118.6z"/>
	<path class="st1" d="M63.2,118.6L63.2,118.6c0-2.8,2.1-4.9,5.1-4.9c3.5,0,5.1,2.3,5.1,5.1c0,0.2,0,0.4,0,0.6H67
		c0.3,0.8,1,1.2,1.9,1.2c0.7,0,1.4-0.3,2-1l2.2,1.7c-1,1.2-2.4,2-4.5,2C65.3,123.4,63.2,121.5,63.2,118.6z M69.6,117.7
		c-0.1-0.9-0.6-1.4-1.4-1.4c-0.7,0-1.2,0.5-1.3,1.4H69.6z"/>
	<path class="st1" d="M73.9,120.6L73.9,120.6c0-1.9,1.5-2.9,3.8-2.9c0.8,0,1.9,0.2,2.3,0.3v-0.2c0-0.9-0.6-1.4-1.8-1.4
		c-1,0-1.9,0.2-2.7,0.5l-0.7-2.6c1.1-0.4,2.4-0.7,4.1-0.7c2,0,3.3,0.4,4.2,1.2c0.7,0.7,1,1.6,1,3v5.3H80v-0.9
		c-0.7,0.7-1.6,1.2-2.8,1.2C75.2,123.4,73.9,122.4,73.9,120.6z M80,119.8v-0.4c-0.2-0.1-0.6-0.2-0.9-0.2c-0.8,0-1.3,0.5-1.3,1l0,0
		c0,0.5,0.4,0.9,0.9,0.9C79.4,121.2,80,120.7,80,119.8z"/>
	<path class="st1" d="M85.2,113.9h4.1v1.3c0.6-0.8,1.6-1.5,3-1.5c2.1,0,3.4,1.3,3.4,3.4v6.2h-4.1v-4.9c0-0.8-0.5-1.3-1.1-1.3
		s-1.2,0.5-1.2,1.3v4.9h-4.1C85.2,123.3,85.2,113.9,85.2,113.9z"/>
	<path class="st1" d="M105.9,111.2h4.2l5.3,12h-4.6l-0.7-1.6h-4.4l-0.6,1.6h-4.5L105.9,111.2z M109.1,118.8l-1.2-2.9l-1.2,2.9H109.1
		z"/>
	<path class="st1" d="M115.8,113.9h4.1v1.2c0.6-0.8,1.6-1.5,3-1.5c1.3,0,2.4,0.5,2.9,1.5c0.8-0.9,1.8-1.5,3.3-1.5
		c2.1,0,3.4,1.3,3.4,3.4v6.2h-4.1v-4.9c0-0.8-0.5-1.2-1.1-1.2s-1.1,0.4-1.1,1.2v4.9h-4.1v-4.9c0-0.8-0.5-1.2-1.1-1.2
		s-1.1,0.4-1.1,1.2v4.9h-4.1V113.9z"/>
	<path class="st1" d="M133.4,118.6L133.4,118.6c0-2.8,2.1-4.9,5.1-4.9c3.5,0,5.1,2.3,5.1,5.1c0,0.2,0,0.4,0,0.6h-6.3
		c0.3,0.8,1,1.2,1.9,1.2c0.7,0,1.4-0.3,2-1l2.2,1.7c-1,1.2-2.4,2-4.5,2C135.6,123.4,133.4,121.5,133.4,118.6z M139.8,117.7
		c-0.1-0.9-0.6-1.4-1.4-1.4c-0.7,0-1.2,0.5-1.3,1.4H139.8z"/>
	<path class="st1" d="M144.5,113.9h4.1v1.9c0.6-1.3,1.5-2.1,3.1-2v4.1h-0.4c-1.7,0-2.7,0.9-2.7,3v2.4h-4.1L144.5,113.9L144.5,113.9z
		"/>
	<path class="st1" d="M152.3,110.7h4.2v2.5h-4.2V110.7z M152.4,113.9h4.1v9.3h-4.1V113.9z"/>
	<path class="st1" d="M157.4,118.6L157.4,118.6c0-2.6,2.2-4.9,5.4-4.9c2.2,0,3.7,1.1,4.5,2.6l-2.9,1.6c-0.3-0.6-0.8-0.9-1.4-0.9
		c-0.9,0-1.5,0.7-1.5,1.6l0,0c0,1,0.6,1.7,1.5,1.7c0.7,0,1.1-0.3,1.5-0.9l3,1.6c-0.9,1.6-2.4,2.5-4.7,2.5
		C159.6,123.5,157.4,121.2,157.4,118.6z"/>
	<path class="st1" d="M167.6,120.6L167.6,120.6c0-1.9,1.5-2.9,3.8-2.9c0.8,0,1.9,0.2,2.3,0.3v-0.2c0-0.9-0.6-1.4-1.8-1.4
		c-1,0-1.9,0.2-2.7,0.5l-0.7-2.6c1.1-0.4,2.4-0.7,4.1-0.7c2,0,3.3,0.4,4.2,1.2c0.7,0.7,1,1.6,1,3v5.3h-4.1v-0.9
		c-0.7,0.7-1.6,1.2-2.8,1.2C168.9,123.4,167.6,122.4,167.6,120.6z M173.7,119.8v-0.4c-0.2-0.1-0.6-0.2-0.9-0.2c-0.8,0-1.3,0.5-1.3,1
		l0,0c0,0.5,0.4,0.9,0.9,0.9C173.2,121.2,173.7,120.7,173.7,119.8z"/>
	<path class="st1" d="M178.9,113.9h4.1v1.3c0.6-0.8,1.6-1.5,3-1.5c2.1,0,3.4,1.3,3.4,3.4v6.2h-4.1v-4.9c0-0.8-0.5-1.3-1.1-1.3
		s-1.2,0.5-1.2,1.3v4.9h-4.1L178.9,113.9L178.9,113.9z"/>
	<path class="st1" d="M195.2,111.3h4.8c5,0,7.5,2.3,7.5,5.9l0,0c0,3.5-2.6,6-7.7,6h-4.7L195.2,111.3L195.2,111.3z M199.4,114.7v5
		h0.7c1.9,0,3.2-0.8,3.2-2.5l0,0c0-1.7-1.2-2.5-3.2-2.5H199.4z"/>
	<path class="st1" d="M208.3,118.6L208.3,118.6c0-2.8,2.1-4.9,5.1-4.9c3.5,0,5.1,2.3,5.1,5.1c0,0.2,0,0.4,0,0.6h-6.3
		c0.3,0.8,1,1.2,1.9,1.2c0.7,0,1.4-0.3,2-1l2.2,1.7c-1,1.2-2.4,2-4.5,2C210.5,123.4,208.3,121.5,208.3,118.6z M214.8,117.7
		c-0.1-0.9-0.6-1.4-1.4-1.4c-0.7,0-1.2,0.5-1.3,1.4H214.8z"/>
	<path class="st1" d="M219.4,113.9h4.1v1.2c0.6-0.8,1.6-1.5,3-1.5c1.3,0,2.4,0.5,2.9,1.5c0.8-0.9,1.8-1.5,3.3-1.5
		c2.1,0,3.4,1.3,3.4,3.4v6.2H232v-4.9c0-0.8-0.5-1.2-1.1-1.2s-1.1,0.4-1.1,1.2v4.9h-4.1v-4.9c0-0.8-0.5-1.2-1.1-1.2
		s-1.1,0.4-1.1,1.2v4.9h-4.1L219.4,113.9L219.4,113.9z"/>
	<path class="st1" d="M237,118.6L237,118.6c0-2.8,2.1-4.9,5.1-4.9c3.5,0,5.1,2.3,5.1,5.1c0,0.2,0,0.4,0,0.6h-6.3
		c0.3,0.8,1,1.2,1.9,1.2c0.7,0,1.4-0.3,2-1l2.2,1.7c-1,1.2-2.4,2-4.5,2C239.2,123.4,237,121.5,237,118.6z M243.4,117.7
		c-0.1-0.9-0.6-1.4-1.4-1.4c-0.7,0-1.2,0.5-1.3,1.4H243.4z"/>
	<path class="st1" d="M248.1,113.9h4.1v1.3c0.6-0.8,1.6-1.5,3-1.5c2.1,0,3.4,1.3,3.4,3.4v6.2h-4.1v-4.9c0-0.8-0.5-1.3-1.1-1.3
		s-1.2,0.5-1.2,1.3v4.9h-4.1L248.1,113.9L248.1,113.9z"/>
	<path class="st1" d="M260.5,120.1v-3.2h-1.2v-3h1.2v-2.3h4.1v2.3h2.3v3h-2.3v2.4c0,0.7,0.3,1,1,1c0.4,0,0.8-0.1,1.2-0.3v3
		c-0.6,0.3-1.6,0.5-2.6,0.5C261.8,123.4,260.5,122.4,260.5,120.1z"/>
	<path class="st1" d="M267.7,110.7h4.2v2.5h-4.2V110.7z M267.8,113.9h4.1v9.3h-4.1V113.9z"/>
	<path class="st1" d="M272.8,120.6L272.8,120.6c0-1.9,1.5-2.9,3.8-2.9c0.8,0,1.9,0.2,2.3,0.3v-0.2c0-0.9-0.6-1.4-1.8-1.4
		c-1,0-1.9,0.2-2.7,0.5l-0.7-2.6c1.1-0.4,2.4-0.7,4.1-0.7c2,0,3.3,0.4,4.2,1.2c0.7,0.7,1,1.6,1,3v5.3h-4.1v-0.9
		c-0.7,0.7-1.6,1.2-2.8,1.2C274.1,123.4,272.8,122.4,272.8,120.6z M278.9,119.8v-0.4c-0.2-0.1-0.6-0.2-0.9-0.2c-0.8,0-1.3,0.5-1.3,1
		l0,0c0,0.5,0.4,0.9,0.9,0.9C278.3,121.2,278.9,120.7,278.9,119.8z"/>
	<path class="st1" d="M288.3,120.6L288.3,120.6c0-1.9,1.5-2.9,3.8-2.9c0.8,0,1.9,0.2,2.3,0.3v-0.2c0-0.9-0.6-1.4-1.8-1.4
		c-1,0-1.9,0.2-2.7,0.5l-0.7-2.6c1.1-0.4,2.4-0.7,4.1-0.7c2,0,3.3,0.4,4.2,1.2c0.7,0.7,1,1.6,1,3v5.3h-4.1v-0.9
		c-0.7,0.7-1.6,1.2-2.8,1.2C289.6,123.4,288.3,122.4,288.3,120.6z M294.4,119.8v-0.4c-0.2-0.1-0.6-0.2-0.9-0.2c-0.8,0-1.3,0.5-1.3,1
		l0,0c0,0.5,0.4,0.9,0.9,0.9C293.8,121.2,294.4,120.7,294.4,119.8z"/>
	<path class="st1" d="M299.6,113.9h4.1v1.3c0.6-0.8,1.6-1.5,3-1.5c2.1,0,3.4,1.3,3.4,3.4v6.2H306v-4.9c0-0.8-0.5-1.3-1.1-1.3
		s-1.2,0.5-1.2,1.3v4.9h-4.1L299.6,113.9L299.6,113.9z"/>
	<path class="st1" d="M310.9,118.6L310.9,118.6c0-3,1.9-5,4.2-5c1.5,0,2.3,0.6,3,1.3v-4.2h4.1v12.5h-4.1v-1.1
		c-0.7,0.7-1.4,1.4-2.9,1.4C312.8,123.4,310.9,121.5,310.9,118.6z M318.2,118.6L318.2,118.6c0-1-0.7-1.7-1.6-1.7s-1.6,0.7-1.6,1.7
		l0,0c0,0.9,0.7,1.7,1.6,1.7C317.5,120.2,318.2,119.5,318.2,118.6z"/>
	<path class="st1" d="M332.5,111.2h4.2l5.3,12h-4.6l-0.7-1.6h-4.4l-0.6,1.6h-4.5L332.5,111.2z M335.7,118.8l-1.2-2.9l-1.2,2.9H335.7
		z"/>
	<path class="st1" d="M341.7,124.8l1.3-2.3c1.1,0.5,2.2,0.9,3.6,0.9c1.5,0,2.3-0.8,2.3-2.1V121c-0.6,0.6-1.5,1.3-2.8,1.3
		c-2.5,0-4.4-1.7-4.4-4.3l0,0c0-2.6,1.9-4.3,4.1-4.3c1.4,0,2.3,0.5,3,1.2v-1h4.1v7c0,1.7-0.4,2.9-1.3,3.8c-0.9,0.8-2.2,1.4-4.4,1.4
		C345,126,343.3,125.6,341.7,124.8z M348.9,118L348.9,118c0-0.8-0.6-1.5-1.6-1.5s-1.6,0.7-1.6,1.5l0,0c0,0.8,0.6,1.4,1.6,1.4
		C348.3,119.5,348.9,118.8,348.9,118z"/>
	<path class="st1" d="M354.1,110.7h4.2v2.5h-4.2V110.7z M354.2,113.9h4.1v9.3h-4.1V113.9z"/>
	<path class="st1" d="M359.5,113.9h4.1v1.3c0.6-0.8,1.6-1.5,3-1.5c2.1,0,3.4,1.3,3.4,3.4v6.2h-4.1v-4.9c0-0.8-0.5-1.3-1.1-1.3
		s-1.2,0.5-1.2,1.3v4.9h-4.1L359.5,113.9L359.5,113.9z"/>
	<path class="st1" d="M371,124.8l1.3-2.3c1.1,0.5,2.2,0.9,3.6,0.9c1.5,0,2.3-0.8,2.3-2.1V121c-0.6,0.6-1.5,1.3-2.8,1.3
		c-2.5,0-4.4-1.7-4.4-4.3l0,0c0-2.6,1.9-4.3,4.1-4.3c1.4,0,2.3,0.5,3,1.2v-1h4.1v7c0,1.7-0.4,2.9-1.3,3.8c-0.9,0.8-2.2,1.4-4.4,1.4
		C374.2,126,372.6,125.6,371,124.8z M378.1,118L378.1,118c0-0.8-0.6-1.5-1.6-1.5s-1.6,0.7-1.6,1.5l0,0c0,0.8,0.6,1.4,1.6,1.4
		C377.5,119.5,378.1,118.8,378.1,118z"/>
	<path class="st1" d="M387,121.4l2.3-2.5c1.4,1,2.9,1.4,4.4,1.4c0.8,0,1.1-0.2,1.1-0.5l0,0c0-0.3-0.4-0.5-1.7-0.8
		c-2.8-0.5-5.3-1.3-5.3-3.8l0,0c0-2.3,1.9-4,5.4-4c2.4,0,4.2,0.5,5.7,1.6l-2.1,2.7c-1.2-0.8-2.6-1.2-3.8-1.2c-0.6,0-0.9,0.2-0.9,0.5
		l0,0c0,0.3,0.3,0.5,1.7,0.8c3.2,0.6,5.4,1.5,5.4,3.9l0,0c0,2.5-2.2,4.1-5.6,4.1C390.9,123.4,388.6,122.8,387,121.4z"/>
	<path class="st1" d="M400.4,120.1v-3.2h-1.2v-3h1.2v-2.3h4.1v2.3h2.3v3h-2.3v2.4c0,0.7,0.3,1,1,1c0.4,0,0.8-0.1,1.2-0.3v3
		c-0.6,0.3-1.6,0.5-2.6,0.5C401.7,123.4,400.4,122.4,400.4,120.1z"/>
	<path class="st1" d="M407.6,120v-6.2h4.1v4.9c0,0.8,0.5,1.3,1.1,1.3s1.2-0.5,1.2-1.3v-4.9h4.1v9.3H414V122c-0.6,0.8-1.6,1.5-3,1.5
		C408.9,123.4,407.6,122.1,407.6,120z"/>
	<path class="st1" d="M419,118.6L419,118.6c0-3,1.9-5,4.2-5c1.5,0,2.3,0.6,3,1.3v-4.2h4.1v12.5h-4.1v-1.1c-0.7,0.7-1.4,1.4-2.9,1.4
		C420.9,123.4,419,121.5,419,118.6z M426.3,118.6L426.3,118.6c0-1-0.7-1.7-1.6-1.7s-1.6,0.7-1.6,1.7l0,0c0,0.9,0.7,1.7,1.6,1.7
		C425.6,120.2,426.3,119.5,426.3,118.6z"/>
	<path class="st1" d="M438.5,113.9h4.2l-3.4,8.7c-1,2.4-2,3.4-4.3,3.4c-1.4,0-2.7-0.4-3.8-1l1.2-2.6c0.7,0.4,1.4,0.6,1.8,0.6
		c0.2,0,0.5,0,0.7-0.1l-3.9-9h4.2l1.7,4.9L438.5,113.9z"/>
</g>
</svg>
